<svg width="1025" height="549" viewBox="0 0 1025 549" fill="none" xmlns="http://www.w3.org/2000/svg">
<path d="M4.9696 86.918L19.6947 0.252014H42.0124L59.3834 46.4585L76.6394 0.252014H98.9571L113.682 86.918H91.2494L83.7718 37.0333L63.2948 86.918H54.3217L34.8799 37.0333L27.4024 86.918H4.9696Z" fill="white"/>
<path d="M175.131 54.7343L165.008 25.884L154.884 54.7343H175.131ZM181.113 71.8606H148.902L143.726 86.918H119.682L152.699 0.252014H177.317L210.334 86.918H186.29L181.113 71.8606Z" fill="white"/>
<path d="M242.747 38.9873H247.003C251.452 38.9873 254.864 38.0678 257.242 36.2287C259.619 34.3897 260.808 31.746 260.808 28.2978C260.808 24.8495 259.619 22.2059 257.242 20.3668C254.864 18.5277 251.452 17.6082 247.003 17.6082H242.747V38.9873ZM292.329 86.918H264.259L242.747 53.5849V86.918H220.199V0.252014H255.286C260.118 0.252014 264.336 0.979977 267.941 2.4359C271.545 3.8152 274.498 5.7309 276.799 8.18298C279.176 10.6351 280.94 13.4703 282.091 16.6887C283.318 19.907 283.931 23.3553 283.931 27.0334C283.931 33.6234 282.321 38.9873 279.099 43.1252C275.955 47.1865 271.277 49.9451 265.065 51.401L292.329 86.918Z" fill="white"/>
<path d="M324.308 0.252014V86.918H301.761V0.252014H324.308Z" fill="white"/>
<path d="M342.429 86.918V0.252014H364.977L406.621 53.2401V0.252014H429.054V86.918H406.621L364.977 33.9299V86.918H342.429Z" fill="white"/>
<path d="M496.597 19.3323H469.793V33.815H495.102V52.8952H469.793V67.8377H496.597V86.918H447.245V0.252014H496.597V19.3323Z" fill="white"/>
<path d="M71.3476 181.237C66.1324 174.877 59.6902 171.697 52.0209 171.697C48.6464 171.697 45.5019 172.31 42.5876 173.536C39.75 174.762 37.2958 176.448 35.2251 178.593C33.1543 180.662 31.5054 183.152 30.2784 186.064C29.128 188.976 28.5528 192.118 28.5528 195.49C28.5528 198.938 29.128 202.118 30.2784 205.03C31.5054 207.942 33.1543 210.47 35.2251 212.616C37.3725 214.761 39.865 216.447 42.7026 217.673C45.5403 218.899 48.608 219.512 51.9058 219.512C59.115 219.512 65.5956 216.447 71.3476 210.317V236.983L69.0468 237.788C65.5956 239.014 62.3745 239.895 59.3834 240.432C56.3924 241.045 53.4397 241.351 50.5254 241.351C44.5433 241.351 38.7913 240.24 33.2694 238.018C27.8242 235.719 22.9925 232.539 18.7744 228.478C14.6329 224.34 11.2968 219.474 8.76591 213.88C6.23504 208.21 4.9696 202.041 4.9696 195.375C4.9696 188.708 6.19669 182.616 8.65088 177.099C11.1818 171.505 14.5179 166.716 18.6593 162.731C22.8775 158.67 27.7475 155.528 33.2694 153.306C38.7913 151.007 44.5816 149.858 50.6404 149.858C54.0916 149.858 57.4661 150.241 60.7639 151.007C64.1384 151.697 67.6663 152.808 71.3476 154.34V181.237Z" fill="white"/>
<path d="M106.519 195.604C106.519 199.053 107.171 202.233 108.475 205.145C109.779 208.056 111.543 210.585 113.767 212.731C115.991 214.876 118.56 216.562 121.474 217.788C124.465 218.938 127.61 219.512 130.908 219.512C134.205 219.512 137.311 218.938 140.226 217.788C143.217 216.562 145.824 214.876 148.049 212.731C150.349 210.585 152.152 208.056 153.455 205.145C154.759 202.233 155.411 199.053 155.411 195.604C155.411 192.156 154.759 188.976 153.455 186.064C152.152 183.152 150.349 180.624 148.049 178.478C145.824 176.333 143.217 174.685 140.226 173.536C137.311 172.31 134.205 171.697 130.908 171.697C127.61 171.697 124.465 172.31 121.474 173.536C118.56 174.685 115.991 176.333 113.767 178.478C111.543 180.624 109.779 183.152 108.475 186.064C107.171 188.976 106.519 192.156 106.519 195.604ZM82.936 195.604C82.936 189.168 84.1248 183.191 86.5022 177.674C88.8797 172.08 92.1775 167.214 96.3957 163.076C100.614 158.938 105.637 155.72 111.466 153.421C117.371 151.045 123.852 149.858 130.908 149.858C137.887 149.858 144.329 151.045 150.234 153.421C156.14 155.72 161.201 158.938 165.42 163.076C169.714 167.214 173.05 172.08 175.428 177.674C177.805 183.191 178.994 189.168 178.994 195.604C178.994 202.041 177.805 208.056 175.428 213.65C173.05 219.167 169.714 223.995 165.42 228.133C161.201 232.271 156.14 235.528 150.234 237.903C144.329 240.202 137.887 241.351 130.908 241.351C123.852 241.351 117.371 240.202 111.466 237.903C105.637 235.528 100.614 232.271 96.3957 228.133C92.1775 223.995 88.8797 219.167 86.5022 213.65C84.1248 208.056 82.936 202.041 82.936 195.604Z" fill="white"/>
<path d="M193.237 238.937V152.271H215.784L257.429 205.26V152.271H279.862V238.937H257.429L215.784 185.949V238.937H193.237Z" fill="white"/>
<path d="M345.68 174.455C343.225 172.463 340.771 171.007 338.317 170.087C335.863 169.091 333.485 168.593 331.185 168.593C328.27 168.593 325.893 169.283 324.052 170.662C322.212 172.041 321.291 173.842 321.291 176.064C321.291 177.597 321.751 178.861 322.672 179.857C323.592 180.854 324.781 181.735 326.238 182.501C327.772 183.191 329.459 183.804 331.3 184.34C333.217 184.877 335.096 185.451 336.937 186.064C344.299 188.516 349.668 191.811 353.042 195.949C356.493 200.011 358.219 205.336 358.219 211.926C358.219 216.371 357.452 220.394 355.918 223.995C354.461 227.597 352.275 230.7 349.361 233.305C346.523 235.834 342.995 237.788 338.777 239.167C334.636 240.623 329.919 241.351 324.627 241.351C313.66 241.351 303.498 238.095 294.142 231.581L303.805 213.42C307.18 216.409 310.516 218.631 313.814 220.087C317.111 221.543 320.371 222.271 323.592 222.271C327.273 222.271 329.996 221.428 331.76 219.742C333.6 218.056 334.521 216.141 334.521 213.995C334.521 212.692 334.291 211.581 333.831 210.662C333.37 209.666 332.603 208.784 331.53 208.018C330.456 207.175 329.037 206.409 327.273 205.719C325.586 205.03 323.515 204.263 321.061 203.42C318.147 202.501 315.271 201.505 312.433 200.432C309.672 199.283 307.18 197.788 304.956 195.949C302.808 194.11 301.044 191.811 299.664 189.053C298.36 186.218 297.708 182.654 297.708 178.363C297.708 174.072 298.398 170.202 299.779 166.754C301.236 163.229 303.23 160.241 305.761 157.789C308.368 155.26 311.513 153.306 315.194 151.927C318.952 150.547 323.132 149.858 327.733 149.858C332.028 149.858 336.515 150.471 341.193 151.697C345.871 152.846 350.358 154.57 354.653 156.869L345.68 174.455Z" fill="white"/>
<path d="M421.777 171.352H394.972V185.834H420.281V204.915H394.972V219.857H421.777V238.937H372.425V152.271H421.777V171.352Z" fill="white"/>
<path d="M460.581 191.007H464.837C469.286 191.007 472.699 190.087 475.076 188.248C477.453 186.409 478.642 183.765 478.642 180.317C478.642 176.869 477.453 174.225 475.076 172.386C472.699 170.547 469.286 169.628 464.837 169.628H460.581V191.007ZM510.163 238.937H482.093L460.581 205.604V238.937H438.033V152.271H473.12C477.952 152.271 482.17 152.999 485.775 154.455C489.379 155.835 492.332 157.75 494.633 160.202C497.01 162.655 498.774 165.49 499.925 168.708C501.152 171.926 501.765 175.375 501.765 179.053C501.765 185.643 500.155 191.007 496.934 195.145C493.789 199.206 489.111 201.965 482.899 203.42L510.163 238.937Z" fill="white"/>
<path d="M531.64 152.271L552.577 205.03L573.629 152.271H598.133L561.55 238.937H543.604L507.136 152.271H531.64Z" fill="white"/>
<path d="M647.536 206.754L637.412 177.903L627.289 206.754H647.536ZM653.518 223.88H621.307L616.13 238.937H592.087L625.103 152.271H649.722L682.738 238.937H658.695L653.518 223.88Z" fill="white"/>
<path d="M721.685 171.352V238.937H699.138V171.352H680.616V152.271H740.207V171.352H721.685Z" fill="white"/>
<path d="M772.784 152.271V238.937H750.236V152.271H772.784Z" fill="white"/>
<path d="M810.576 195.604C810.576 199.053 811.228 202.233 812.532 205.145C813.835 208.056 815.599 210.585 817.824 212.731C820.048 214.876 822.617 216.562 825.531 217.788C828.522 218.938 831.667 219.512 834.964 219.512C838.262 219.512 841.368 218.938 844.283 217.788C847.274 216.562 849.881 214.876 852.105 212.731C854.406 210.585 856.208 208.056 857.512 205.145C858.816 202.233 859.468 199.053 859.468 195.604C859.468 192.156 858.816 188.976 857.512 186.064C856.208 183.152 854.406 180.624 852.105 178.478C849.881 176.333 847.274 174.685 844.283 173.536C841.368 172.31 838.262 171.697 834.964 171.697C831.667 171.697 828.522 172.31 825.531 173.536C822.617 174.685 820.048 176.333 817.824 178.478C815.599 180.624 813.835 183.152 812.532 186.064C811.228 188.976 810.576 192.156 810.576 195.604ZM786.993 195.604C786.993 189.168 788.182 183.191 790.559 177.674C792.937 172.08 796.234 167.214 800.453 163.076C804.671 158.938 809.694 155.72 815.523 153.421C821.428 151.045 827.909 149.858 834.964 149.858C841.944 149.858 848.386 151.045 854.291 153.421C860.196 155.72 865.258 158.938 869.476 163.076C873.771 167.214 877.107 172.08 879.485 177.674C881.862 183.191 883.051 189.168 883.051 195.604C883.051 202.041 881.862 208.056 879.485 213.65C877.107 219.167 873.771 223.995 869.476 228.133C865.258 232.271 860.196 235.528 854.291 237.903C848.386 240.202 841.944 241.351 834.964 241.351C827.909 241.351 821.428 240.202 815.523 237.903C809.694 235.528 804.671 232.271 800.453 228.133C796.234 223.995 792.937 219.167 790.559 213.65C788.182 208.056 786.993 202.041 786.993 195.604Z" fill="white"/>
<path d="M897.294 238.937V152.271H919.841L961.486 205.26V152.271H983.918V238.937H961.486L919.841 185.949V238.937H897.294Z" fill="white"/>
<path d="M8.88096 390.957V304.291H31.4288L73.0731 357.279V304.291H95.5059V390.957H73.0731L31.4288 337.969V390.957H8.88096Z" fill="white"/>
<path d="M134.38 347.624C134.38 351.072 135.032 354.252 136.336 357.164C137.64 360.076 139.404 362.605 141.628 364.75C143.852 366.896 146.421 368.582 149.336 369.808C152.327 370.957 155.471 371.532 158.769 371.532C162.067 371.532 165.173 370.957 168.087 369.808C171.078 368.582 173.686 366.896 175.91 364.75C178.211 362.605 180.013 360.076 181.317 357.164C182.62 354.252 183.272 351.072 183.272 347.624C183.272 344.176 182.62 340.996 181.317 338.084C180.013 335.172 178.211 332.643 175.91 330.498C173.686 328.352 171.078 326.705 168.087 325.555C165.173 324.329 162.067 323.716 158.769 323.716C155.471 323.716 152.327 324.329 149.336 325.555C146.421 326.705 143.852 328.352 141.628 330.498C139.404 332.643 137.64 335.172 136.336 338.084C135.032 340.996 134.38 344.176 134.38 347.624ZM110.797 347.624C110.797 341.187 111.986 335.21 114.363 329.693C116.741 324.099 120.039 319.233 124.257 315.095C128.475 310.958 133.498 307.739 139.327 305.44C145.232 303.065 151.713 301.877 158.769 301.877C165.748 301.877 172.19 303.065 178.095 305.44C184.001 307.739 189.063 310.958 193.281 315.095C197.576 319.233 200.912 324.099 203.289 329.693C205.667 335.21 206.855 341.187 206.855 347.624C206.855 354.061 205.667 360.076 203.289 365.67C200.912 371.187 197.576 376.015 193.281 380.152C189.063 384.29 184.001 387.547 178.095 389.922C172.19 392.221 165.748 393.371 158.769 393.371C151.713 393.371 145.232 392.221 139.327 389.922C133.498 387.547 128.475 384.29 124.257 380.152C120.039 376.015 116.741 371.187 114.363 365.67C111.986 360.076 110.797 354.061 110.797 347.624Z" fill="white"/>
<path d="M243.646 343.026H247.902C252.35 343.026 255.763 342.107 258.141 340.268C260.518 338.429 261.707 335.785 261.707 332.337C261.707 328.888 260.518 326.245 258.141 324.406C255.763 322.567 252.35 321.647 247.902 321.647H243.646V343.026ZM293.228 390.957H265.158L243.646 357.624V390.957H221.098V304.291H256.185C261.017 304.291 265.235 305.019 268.839 306.475C272.444 307.854 275.397 309.77 277.697 312.222C280.075 314.674 281.839 317.509 282.989 320.728C284.216 323.946 284.83 327.394 284.83 331.072C284.83 337.662 283.219 343.026 279.998 347.164C276.854 351.225 272.176 353.984 265.963 355.44L293.228 390.957Z" fill="white"/>
<path d="M352.356 323.371H325.207V337.854H349.941V356.934H325.207V390.957H302.659V304.291H352.356V323.371Z" fill="white"/>
<path d="M385.356 347.624C385.356 351.072 386.008 354.252 387.311 357.164C388.615 360.076 390.379 362.605 392.603 364.75C394.827 366.896 397.397 368.582 400.311 369.808C403.302 370.957 406.446 371.532 409.744 371.532C413.042 371.532 416.148 370.957 419.062 369.808C422.053 368.582 424.661 366.896 426.885 364.75C429.186 362.605 430.988 360.076 432.292 357.164C433.596 354.252 434.248 351.072 434.248 347.624C434.248 344.176 433.596 340.996 432.292 338.084C430.988 335.172 429.186 332.643 426.885 330.498C424.661 328.352 422.053 326.705 419.062 325.555C416.148 324.329 413.042 323.716 409.744 323.716C406.446 323.716 403.302 324.329 400.311 325.555C397.397 326.705 394.827 328.352 392.603 330.498C390.379 332.643 388.615 335.172 387.311 338.084C386.008 340.996 385.356 344.176 385.356 347.624ZM361.773 347.624C361.773 341.187 362.961 335.21 365.339 329.693C367.716 324.099 371.014 319.233 375.232 315.095C379.45 310.958 384.474 307.739 390.302 305.44C396.208 303.065 402.688 301.877 409.744 301.877C416.723 301.877 423.166 303.065 429.071 305.44C434.976 307.739 440.038 310.958 444.256 315.095C448.551 319.233 451.887 324.099 454.265 329.693C456.642 335.21 457.831 341.187 457.831 347.624C457.831 354.061 456.642 360.076 454.265 365.67C451.887 371.187 448.551 376.015 444.256 380.152C440.038 384.29 434.976 387.547 429.071 389.922C423.166 392.221 416.723 393.371 409.744 393.371C402.688 393.371 396.208 392.221 390.302 389.922C384.474 387.547 379.45 384.29 375.232 380.152C371.014 376.015 367.716 371.187 365.339 365.67C362.961 360.076 361.773 354.061 361.773 347.624Z" fill="white"/>
<path d="M494.621 304.291V371.877H521.655V390.957H472.073V304.291H494.621Z" fill="white"/>
<path d="M555.848 340.038L583.343 304.291H611.182L576.786 345.325L614.404 390.957H585.183L555.848 353.371V390.957H533.301V304.291H555.848V340.038Z" fill="white"/>
<path d="M61.1324 521.93H24.0028L14.3413 542.976H0.242188L43.1574 450.877L84.556 542.976H70.2322L61.1324 521.93ZM55.7961 509.639L42.9327 480.174L29.4515 509.639H55.7961Z" fill="white"/>
<path d="M167.005 460.98V476.47C159.44 470.146 151.614 466.985 143.525 466.985C134.613 466.985 127.104 470.184 121 476.582C114.859 482.943 111.788 490.725 111.788 499.929C111.788 509.021 114.859 516.692 121 522.94C127.142 529.189 134.669 532.313 143.581 532.313C148.187 532.313 152.101 531.565 155.321 530.068C157.119 529.32 158.972 528.309 160.882 527.037C162.829 525.765 164.87 524.231 167.005 522.435V538.206C159.515 542.434 151.651 544.548 143.413 544.548C131.018 544.548 120.439 540.226 111.676 531.583C102.95 522.865 98.5877 512.351 98.5877 500.042C98.5877 489.004 102.239 479.164 109.541 470.521C118.529 459.932 130.156 454.638 144.424 454.638C152.213 454.638 159.74 456.752 167.005 460.98Z" fill="white"/>
<path d="M219.009 468.612V542.976H205.921V468.612H185.98V456.321H238.894V468.612H219.009Z" fill="white"/>
<path d="M275.169 456.321V542.976H262.081V456.321H275.169Z" fill="white"/>
<path d="M303.188 499.256C303.188 487.058 307.663 476.582 316.613 467.827C325.525 459.071 336.235 454.694 348.743 454.694C361.101 454.694 371.699 459.109 380.536 467.939C389.411 476.769 393.849 487.376 393.849 499.761C393.849 512.221 389.393 522.791 380.48 531.471C371.53 540.189 360.726 544.548 348.069 544.548C336.872 544.548 326.817 540.675 317.905 532.93C308.093 524.362 303.188 513.137 303.188 499.256ZM316.388 499.424C316.388 509.003 319.609 516.879 326.05 523.052C332.453 529.226 339.849 532.313 348.237 532.313C357.337 532.313 365.014 529.17 371.268 522.884C377.522 516.523 380.649 508.778 380.649 499.649C380.649 490.407 377.559 482.662 371.38 476.414C365.239 470.128 357.637 466.985 348.575 466.985C339.55 466.985 331.929 470.128 325.713 476.414C319.496 482.625 316.388 490.295 316.388 499.424Z" fill="white"/>
<path d="M421.811 542.976V450.428L485.061 516.542V456.321H498.149V548.252L434.899 482.307V542.976H421.811Z" fill="white"/>
<path d="M622.097 497.853H657.935V500.715C657.935 507.226 657.167 512.988 655.632 518.001C654.134 522.641 651.606 526.981 648.049 531.022C639.997 540.077 629.755 544.604 617.323 544.604C605.19 544.604 594.798 540.226 586.147 531.471C577.497 522.678 573.172 512.127 573.172 499.817C573.172 487.245 577.572 476.582 586.372 467.827C595.172 459.034 605.882 454.638 618.502 454.638C625.28 454.638 631.609 456.022 637.488 458.791C643.106 461.559 648.629 466.049 654.059 472.26L644.734 481.184C637.619 471.718 628.95 466.985 618.727 466.985C609.552 466.985 601.857 470.146 595.64 476.47C589.424 482.681 586.316 490.463 586.316 499.817C586.316 509.47 589.78 517.421 596.708 523.67C603.186 529.469 610.208 532.369 617.772 532.369C624.213 532.369 629.999 530.199 635.129 525.859C640.259 521.481 643.124 516.243 643.723 510.144H622.097V497.853Z" fill="white"/>
<path d="M715.331 506.047L742.181 542.976H726.172L701.401 507.506H699.041V542.976H685.953V456.321H701.288C712.747 456.321 721.023 458.473 726.116 462.775C731.733 467.565 734.542 473.888 734.542 481.745C734.542 487.882 732.782 493.157 729.262 497.572C725.742 501.987 721.098 504.812 715.331 506.047ZM699.041 496.113H703.198C715.593 496.113 721.791 491.38 721.791 481.914C721.791 473.046 715.762 468.612 703.704 468.612H699.041V496.113Z" fill="white"/>
<path d="M760.426 499.256C760.426 487.058 764.901 476.582 773.851 467.827C782.763 459.071 793.474 454.694 805.981 454.694C818.339 454.694 828.937 459.109 837.774 467.939C846.649 476.769 851.087 487.376 851.087 499.761C851.087 512.221 846.631 522.791 837.718 531.471C828.768 540.189 817.964 544.548 805.307 544.548C794.11 544.548 784.055 540.675 775.143 532.93C765.331 524.362 760.426 513.137 760.426 499.256ZM773.626 499.424C773.626 509.003 776.847 516.879 783.288 523.052C789.691 529.226 797.087 532.313 805.476 532.313C814.575 532.313 822.252 529.17 828.506 522.884C834.76 516.523 837.887 508.778 837.887 499.649C837.887 490.407 834.797 482.662 828.618 476.414C822.477 470.128 814.875 466.985 805.813 466.985C796.788 466.985 789.167 470.128 782.951 476.414C776.734 482.625 773.626 490.295 773.626 499.424Z" fill="white"/>
<path d="M892.137 456.321V508.516C892.137 515.962 893.354 521.406 895.789 524.848C899.421 529.825 904.533 532.313 911.123 532.313C917.752 532.313 922.882 529.825 926.515 524.848C928.949 521.518 930.166 516.074 930.166 508.516V456.321H943.254V512.108C943.254 521.238 940.408 528.758 934.716 534.67C928.312 541.255 920.448 544.548 911.123 544.548C901.799 544.548 893.954 541.255 887.587 534.67C881.895 528.758 879.049 521.238 879.049 512.108V456.321H892.137Z" fill="white"/>
<path d="M988.685 507.787V542.976H975.597V456.321H990.427C997.692 456.321 1003.18 456.826 1006.89 457.837C1010.63 458.847 1013.93 460.755 1016.77 463.561C1021.75 468.425 1024.24 474.561 1024.24 481.97C1024.24 489.902 1021.58 496.188 1016.27 500.827C1010.95 505.467 1003.78 507.787 994.752 507.787H988.685ZM988.685 495.664H993.572C1005.59 495.664 1011.6 491.043 1011.6 481.801C1011.6 472.859 1005.41 468.388 993.011 468.388H988.685V495.664Z" fill="white"/>
</svg>
