<svg width="755" height="870" viewBox="0 0 755 870" fill="none" xmlns="http://www.w3.org/2000/svg">
<path d="M0 870H755V633.824C754.917 602.422 752.897 571.102 748.938 539.947C745.433 501.292 737.969 463.131 726.671 426.001C722.011 410.959 716.898 396.082 711.29 381.411C703.826 360.394 695.497 339.748 686.219 319.596C631.952 207.257 549.068 109.548 444.823 39.1192C323.548 -42.8892 137.492 8.74725 57.5354 150.057C-27.2869 299.98 -5.6792 458.145 132.708 535.084C188.707 566.239 351.259 604.647 368.578 484.973C382.434 388.945 320.994 387.919 267.161 387.02C242.653 386.61 219.723 386.227 206.191 376.919C171.305 352.77 174.48 305.873 192.831 281.724C205.779 264.622 384.495 189.33 456.988 334.184C527.914 475.824 459.616 870 0 870Z" fill="white"/>
</svg>
